<svg xmlns="http://www.w3.org/2000/svg" version="1.1" xmlns:xlink="http://www.w3.org/1999/xlink" xmlns:svgjs="http://svgjs.dev/svgjs" width="1000" height="1000" viewBox="0 0 1000 1000"><rect width="1000" height="1000" fill="#ffffff"></rect><g transform="matrix(0.7,0,0,0.7,149.57577073153107,385.45552029184944)"><svg viewBox="0 0 396 130" data-background-color="#ffffff" preserveAspectRatio="xMidYMid meet" height="328" width="1000" xmlns="http://www.w3.org/2000/svg" xmlns:xlink="http://www.w3.org/1999/xlink"><g id="tight-bounds" transform="matrix(1,0,0,1,0.2399925575909947,-0.14467612343392489)"><svg viewBox="0 0 395.52 130.28935224686785" height="130.28935224686785" width="395.52"><g><svg viewBox="0 0 659.9117049990296 217.38336515081338" height="130.28935224686785" width="395.52"><g transform="matrix(1,0,0,1,264.3917049990295,66.41643011639029)"><svg viewBox="0 0 395.52000000000004 84.5505049180328" height="84.5505049180328" width="395.52000000000004"><g id="textblocktransform"><svg viewBox="0 0 395.52000000000004 84.5505049180328" height="84.5505049180328" width="395.52000000000004" id="textblock"><g><svg viewBox="0 0 395.52000000000004 84.5505049180328" height="84.5505049180328" width="395.52000000000004"><g transform="matrix(1,0,0,1,0,0)"><svg width="395.52000000000004" viewBox="4.300000190734863 -32.150001525878906 152.489990234375 32.60000228881836" height="84.5505049180328" data-palette-color="#34c398"><path d="M15.55-4.15L23.3-4.4 23.6-3.95 23.25 0 4.3 0 4.65-9.65 4.3-32.1 23.35-32.1 23.65-31.65 23.25-27.7 15.65-27.9 9.55-27.85 9.4-18.5 15.2-18.4 20.5-18.55 20.85-18.15 20.45-14.2 14.8-14.35 9.35-14.25 9.3-10.1 9.45-4.2 15.55-4.15ZM36.7-15.4L37.15-15 37.15-11.8 25.15-10 24.7-10.45 24.7-13.65 36.7-15.4ZM70.9-32.1L73.94 0 69.34 0 68.69-9.75 67.19-24.25 66.84-24.25 58.59-3.55 54.5-3.55 46.84-24.25 46.39-24.25 44.89-10.2 44.09 0 39.74 0 43.09-32.1 48.99-32.1 50.49-27.3 56.64-10.25 57.05-10.25 63.55-27.45 65.05-32.1 70.9-32.1ZM94.74-32.1L105.09 0 99.79 0 99.04-3.6 97.64-8.05 90.84-8.2 84.69-8.05 83.19-3.85 82.39 0 77.24 0 88.69-32.1 94.74-32.1ZM91.19-12.15L96.34-12.25 91.74-27.05 91.39-27.05 86.14-12.25 91.19-12.15ZM125.04-12.85Q128.44-7.4 133.09-1.2L133.09-1.2 133.04-0.6Q130.64 0.2 128.09 0.45L128.09 0.45 127.49 0.05Q123.34-6.75 120.79-11.45L120.79-11.45 115.34-11.45 115.34-10.1 115.59 0 110.34 0 110.69-9.65 110.34-32.1 121.24-32.15Q126.09-32.15 128.74-29.73 131.39-27.3 131.39-22.8L131.39-22.8Q131.39-19.6 129.72-17.03 128.04-14.45 125.04-12.85L125.04-12.85ZM115.59-27.95L115.44-15.65 120.94-15.5Q125.99-17.05 125.99-22.4L125.99-22.4Q125.99-25.2 124.46-26.6 122.94-28 119.84-28.1L119.84-28.1 115.59-27.95ZM156.49-32.1L156.79-31.65 156.49-27.75 150.69-28.05 147.99-28.05 147.74-10.1 147.99 0 142.79 0 143.09-9.65 142.84-28.05 140.14-28.05 134.24-27.75 133.89-28.2 134.29-32.1 156.49-32.1Z" opacity="1" transform="matrix(1,0,0,1,0,0)" fill="#34c398" class="wordmark-text-0" data-fill-palette-color="primary" id="text-0"></path></svg></g></svg></g></svg></g></svg></g><g><svg viewBox="0 0 244.43136 217.38336515081338" height="217.38336515081338" width="244.43136"><g><svg xmlns="http://www.w3.org/2000/svg" xmlns:xlink="http://www.w3.org/1999/xlink" xmlns:a="http://ns.adobe.com/AdobeSVGViewerExtensions/3.0/" version="1.1" x="0" y="0" viewBox="0 0 37.90999984741211 33.71500015258789" enable-background="new -1 -5.284 40 40" xml:space="preserve" height="217.38336515081338" width="244.43136" class="icon-icon-0" data-fill-palette-color="accent" id="icon-0"><path display="none" d="M20.207 15.698c-0.413-0.812-0.875-1.599-1.387-2.349-0.188-0.287-0.387-0.562-0.587-0.837-0.362-0.487-0.725-0.938-1.087-1.35-2.086-2.361-4.436-3.823-7.072-4.398 1.625 1 3.124 2.424 4.486 4.261 2.986 4.011 4.473 8.86 4.473 14.544 0 0.188 0 0.362 0 0.55h3.661c-0.051-1.563-0.213-3.061-0.487-4.498 3.386 2.312 7.472 3.474 12.232 3.474 4.835 0 8.946-1.187 12.358-3.562 2.785-1.937 4.436-4.186 4.947-6.759-0.861 1.362-2.111 2.624-3.748 3.761-3.412 2.373-7.521 3.561-12.357 3.561-4.824 0-8.947-1.188-12.357-3.561C22.019 17.66 20.994 16.71 20.207 15.698L20.207 15.698z" fill="#0282fd" data-fill-palette-color="accent"></path><path display="none" d="M26.68 29.267c0 0.838 0.299 1.563 0.887 2.149 0.6 0.6 1.324 0.899 2.162 0.899 0.836 0 1.561-0.3 2.148-0.899 0.6-0.587 0.9-1.312 0.9-2.149 0-0.837-0.301-1.562-0.9-2.162-0.588-0.586-1.313-0.887-2.148-0.887-0.838 0-1.563 0.301-2.162 0.887C26.979 27.706 26.68 28.43 26.68 29.267L26.68 29.267z" fill="#0282fd" data-fill-palette-color="accent"></path><path display="none" d="M36.176 29.267c0 0.838 0.299 1.563 0.887 2.149 0.6 0.6 1.324 0.899 2.162 0.899 0.836 0 1.561-0.3 2.148-0.899 0.6-0.587 0.9-1.312 0.9-2.149 0-0.837-0.301-1.562-0.9-2.162-0.588-0.586-1.313-0.887-2.148-0.887-0.838 0-1.563 0.301-2.162 0.887C36.475 27.706 36.176 28.43 36.176 29.267L36.176 29.267z" fill="#0282fd" data-fill-palette-color="accent"></path><polygon points="30.631,6.563 24.421,6.563 24.421,11.649 30.631,11.649 30.631,6.563 " fill="#0282fd" data-fill-palette-color="accent"></polygon><polygon points="14.612,5.209 14.612,0 7.523,0 7.523,5.209 14.612,5.209 " fill="#0282fd" data-fill-palette-color="accent"></polygon><polygon points="14.612,18.753 11.77,18.753 13.677,24.516 14.612,24.516 14.612,18.753 " fill="#0282fd" data-fill-palette-color="accent"></polygon><polygon points="11.323,17.4 14.612,17.4 14.612,13.002 9.862,13.002 11.323,17.4 " fill="#0282fd" data-fill-palette-color="accent"></polygon><polygon points="15.966,13.002 15.966,17.4 23.067,17.4 23.067,13.002 15.966,13.002 " fill="#0282fd" data-fill-palette-color="accent"></polygon><polygon points="31.984,13.002 31.984,17.4 34.867,17.4 36.11,13.002 31.984,13.002 " fill="#0282fd" data-fill-palette-color="accent"></polygon><polygon points="30.631,18.753 24.421,18.753 24.421,24.516 30.631,24.516 30.631,18.753 " fill="#0282fd" data-fill-palette-color="accent"></polygon><polygon points="24.421,17.4 30.631,17.4 30.631,13.002 24.421,13.002 24.421,17.4 " fill="#0282fd" data-fill-palette-color="accent"></polygon><polygon points="23.067,18.753 15.966,18.753 15.966,24.516 23.067,24.516 23.067,18.753 " fill="#0282fd" data-fill-palette-color="accent"></polygon><polygon points="23.067,11.649 23.067,6.563 15.966,6.563 15.966,11.649 23.067,11.649 " fill="#0282fd" data-fill-palette-color="accent"></polygon><polygon points="31.984,6.563 31.984,11.649 36.491,11.649 37.91,6.563 31.984,6.563 " fill="#0282fd" data-fill-palette-color="accent"></polygon><polygon points="14.612,11.649 14.612,6.563 7.726,6.563 9.416,11.649 14.612,11.649 " fill="#0282fd" data-fill-palette-color="accent"></polygon><polygon points="0,5.209 6.169,5.209 6.169,0 0,0 0,5.209 " fill="#0282fd" data-fill-palette-color="accent"></polygon><polygon points="31.984,18.753 31.984,24.516 32.864,24.516 34.488,18.753 31.984,18.753 " fill="#0282fd" data-fill-palette-color="accent"></polygon><path d="M21.445 29.793c0-1.083-0.381-2.003-1.15-2.775-0.338-0.336-0.704-0.594-1.096-0.784-0.501-0.243-1.07-0.364-1.679-0.364-0.609 0-1.176 0.121-1.677 0.364-0.391 0.19-0.757 0.448-1.095 0.784-0.772 0.772-1.151 1.692-1.151 2.775s0.379 2.003 1.151 2.772c0.772 0.771 1.692 1.15 2.772 1.15 1.083 0 2.003-0.379 2.775-1.15C21.064 31.796 21.445 30.876 21.445 29.793L21.445 29.793z" fill="#0282fd" data-fill-palette-color="accent"></path><path d="M26.113 27.018c-0.772 0.772-1.15 1.692-1.15 2.775s0.378 2.003 1.15 2.772c0.77 0.771 1.689 1.15 2.772 1.15s2.003-0.379 2.774-1.15c0.771-0.77 1.148-1.689 1.148-2.772s-0.378-2.003-1.148-2.775c-0.338-0.336-0.704-0.594-1.098-0.784-0.499-0.243-1.067-0.364-1.677-0.364s-1.176 0.121-1.677 0.364C26.815 26.424 26.451 26.682 26.113 27.018L26.113 27.018z" fill="#0282fd" data-fill-palette-color="accent"></path></svg></g></svg></g></svg></g><defs></defs></svg><rect width="395.52" height="130.28935224686785" fill="none" stroke="none" visibility="hidden"></rect></g></svg></g></svg>